# xmcd
#
# Track frame offsets:
#	150
#	26633
#	52411
#	84068
#	100910
#	116704
#	131649
#	154752
#	163014
#	177005
#	184866
#	214348
#	232052
#	251258
#	255618
#
# Disc length: 3662 seconds
#
# Revision: 0
# Processed by: cddbd v1.5.2PL0 Copyright (c) Steve Scherf et al.
# Submitted via: EasyCDDAExtractor 12.0.1.1
#
DISCID=cd0e4c0f
DTITLE=Bran Van 3000
DYEAR=1900
DGENRE=
TTITLE0=A Tryst ft. K-Town Sofia
TTITLE1=Garddnwaltz ft. Carinne and Francesca Corno
TTITLE2=Oui Got Now ft. Liquid and Stephane Moraille
TTITLE3=Drop Off ft. Coco Thompson
TTITLE4=You ft. Francesca Corno and Malicious
TTITLE5=You Too ft. Jahsepta
TTITLE6=Grace (Love On The Block)
TTITLE7=Cowboy Hoot ft. Liquid
TTITLE8=Jahrusalem ft. EP Bergen, Dorian and Sidaffa Bakel
TTITLE9=World Party ft. Steeve Khe, Liquid and Jahsepta
TTITLE10=This Day ft. Ben Wilkins
TTITLE11=La Dolce Vita ft. Freddie James
TTITLE12=Journey ft. Helena Nash, Jahsepta and Kim Bingham
TTITLE13=Stillness ft. Rafaelle Mackay Smith and Alexandre Desilets
TTITLE14=Saltwater Cats ft. Kim Neundorf and Malicious
EXTD=
EXTT0=
EXTT1=
EXTT2=
EXTT3=
EXTT4=
EXTT5=
EXTT6=
EXTT7=
EXTT8=
EXTT9=
EXTT10=
EXTT11=
EXTT12=
EXTT13=
EXTT14=
PLAYORDER=
